<?xml version="1.0" encoding="utf-8"?>
<!-- Generator: Adobe Illustrator 28.0.0, SVG Export Plug-In . SVG Version: 6.00 Build 0)  -->
<svg version="1.1" xmlns="http://www.w3.org/2000/svg" xmlns:xlink="http://www.w3.org/1999/xlink" x="0px" y="0px"
	 viewBox="0 0 1024 1024" style="enable-background:new 0 0 1024 1024;" xml:space="preserve">
<style type="text/css">
	.st0{display:none;}
	.st1{display:inline;}
	.st2{fill:#434C5E;}
	.st3{fill:#FFFFFF;}
	.st4{clip-path:url(#SVGID_00000111880015495094470210000018276114175786692486_);fill:#FFFFFF;}
	.st5{clip-path:url(#SVGID_00000071561198207512171830000009951937605045117057_);fill:#FFFFFF;}
	.st6{fill:#D8DEE9;}
	.st7{fill:#8FBCBB;}
	.st8{fill:#88C0D0;}
	.st9{fill:#98CCD8;}
	.st10{fill:#81A1C1;}
	.st11{fill:#EBCB8B;}
	.st12{fill:#BF616A;}
	.st13{fill:#D08770;}
	.st14{fill:#2E3440;}
	.st15{fill:#3B4252;}
	.st16{fill:#4C566A;}
	.st17{clip-path:url(#SVGID_00000016070231419980362570000015002061780209423789_);fill:#434C5E;}
	.st18{clip-path:url(#SVGID_00000016070231419980362570000015002061780209423789_);}
	.st19{clip-path:url(#SVGID_00000048485980161177423490000014375620730523716284_);fill:#434C5E;}
	.st20{clip-path:url(#SVGID_00000048485980161177423490000014375620730523716284_);}
	.st21{clip-path:url(#SVGID_00000064347450245617887920000015281523275504223633_);fill:#434C5E;}
	.st22{clip-path:url(#SVGID_00000064347450245617887920000015281523275504223633_);}
	.st23{clip-path:url(#SVGID_00000051368331695863292880000014391574412804425379_);fill:#434C5E;}
	.st24{clip-path:url(#SVGID_00000051368331695863292880000014391574412804425379_);}
	.st25{clip-path:url(#SVGID_00000079460139700311966960000004268147876441880737_);fill:#434C5E;}
	.st26{clip-path:url(#SVGID_00000079460139700311966960000004268147876441880737_);}
</style>
<g class="st0">
	<rect x="-14.61" y="-10.07" class="st1" width="1054.45" height="1044.49"/>
</g>
<g id="logo">
</g>
<g id="圖層_4">
</g>
<g id="圖層_3">
	<g>
		<defs>
			<circle id="SVGID_00000047757201796795116350000004450098355719733640_" cx="512" cy="512" r="512"/>
		</defs>
		<clipPath id="SVGID_00000028300984615577419270000014433503380322630846_">
			<use xlink:href="#SVGID_00000047757201796795116350000004450098355719733640_"  style="overflow:visible;"/>
		</clipPath>
		
			<circle style="clip-path:url(#SVGID_00000028300984615577419270000014433503380322630846_);fill:#434C5E;" cx="512" cy="512" r="512"/>
		<g style="clip-path:url(#SVGID_00000028300984615577419270000014433503380322630846_);">
			<path class="st3" d="M630.25,430.38c56.43-15.44,83.01-45.68,92.23-58.74c2.33-3.3,4-6.75,5.69-10.67
				c26.83-62.17-9.17-89.87-24.83-99.18c-8.53-5.06-9.8-0.38-8.49,2.78c27,65.08-5.99,92.07-18.89,99.74
				c-2.32,1.38-5.21,0.01-5.82-2.62c-14.52-61.85-68.51-72.2-68.51-72.2s-41.91-7.18-8.86,17.13
				c34.51,25.38,39.84,48.23,45.82,62.75s-4.8,17.38-4.8,17.38s-32.69,13.13-54.54,21.69c-1.52,0.59-2.9,1.21-4.16,1.83
				c-8.96,4.44-14.81,16.13-9.8,24.79C567.93,439.63,577.09,444.92,630.25,430.38z"/>
			<path class="st3" d="M910.27,997.13C586.87,967.14,626.51,750.8,626.51,750.8c-158.1,64.07-176.25,257.28-176.25,257.28
				c0-4.59,0-9.48,0-14.74c0-88.23,33.99-155.15,63.41-196.55c20.25-28.49,46.79-51.96,77.35-68.92c2.44-1.36,4.85-2.69,7.22-4
				c33.1-18.41,104.98-37.37,132.88-48.55c20.99-8.41,36.81-29.69,36.81-29.69s13.42-18.23,30.39-45.99
				c16.97-27.76-84.14-40.85-118.41-49.83c-34.27-8.98-55.17-67.11-130.09-91.56c-61.55-20.08-142.99,2.28-170.11,10.9
				c-6.37,2.03-8.51,4.79-18.87-2.5c-8.4-5.9-20.96-16.42-33.62-32.43c-17.29-21.87-43.51-23.68-43.51-23.68s-15.9-1.36-60.26-2.01
				c-57.63-0.85-27.09,31-27.09,31s49.47,49.57,78.73,59.86c24.05,8.46,43.3,9.14,58.27,9.39c2.96,0.05,6.51,1.59,3.65,4.07
				c-41.03,35.56-34.88,81.14-52.5,112.55c-43.33,77.22-60.19,134.51-65.82,174.25c-0.1,0.74-0.26,1.33-0.36,2.09
				c-0.1,0.76-0.1,1.48-0.2,2.23c-0.97,7.75-1.65,15.04-1.86,21.37c-8.05,137.73,70.55,225.78,70.55,225.78l41.57,25.2l5.12-13.28
				l394.39,107.28L910.27,997.13z"/>
			<path class="st3" d="M215.23,316.36c17.84,15.85,39.51,33.61,65.98,53.27c119.85,89.04,186.24,70.14,193.85,67.52
				c0.49-0.27,0.84-0.46,1.33-0.74c4.21-3.35,27.9-18.21-0.6-25.56c-15.42-3.98-30.76-7.93-42.22-10.87
				c-14.6-3.75-28.76-8.84-42.42-15.23c-40.34-18.89-120.83-61.61-145-111.42c-3.58-7.39-5.95-14.93-6.74-22.57
				c-4-38.69,11.1-71.8,32.62-89.53c15.02-12.37,70.24-47.87,2.36-29.33c-12.19,3.33-29.82,9.97-38.46,19.18
				c-15.69,16.72-25.58,35.61-32.22,53.96c-4.95,13.68-10.76,18.61-17.41,5.67c-6.15-11.96-19.67-28.46-22.59-61.28
				c-6.5-73,72.13-134.21,110.32-159.43c19.25-12.71,57.59-20.52-6.86-20.48c-27.58,0.02-56.81,21.67-56.81,21.67
				S174.93,9.44,131.88,75.6s3.96,147.91,3.96,147.91S147.07,255.79,215.23,316.36z"/>
		</g>
	</g>
</g>
</svg>
